<svg width="50" height="50" viewBox="0 0 50 50" fill="none" xmlns="http://www.w3.org/2000/svg">
<g clip-path="url(#clip0_516_8454)">
<path d="M42.5 0H7.5C3.35786 0 0 3.35786 0 7.5V42.5C0 46.6421 3.35786 50 7.5 50H42.5C46.6421 50 50 46.6421 50 42.5V7.5C50 3.35786 46.6421 0 42.5 0Z" fill="#383838"/>
<path fill-rule="evenodd" clip-rule="evenodd" d="M30.5795 14.3639C31.7187 13.0436 32.4866 11.2047 32.2764 9.375C30.6348 9.4375 28.6488 10.4237 27.4717 11.7424C26.4146 12.9127 25.4919 14.7827 25.74 16.5764C27.5712 16.7123 29.4403 15.6857 30.5795 14.3639ZM34.6859 25.9766C34.7317 30.7062 39.0151 32.2795 39.0625 32.2998C39.0277 32.4107 38.3784 34.5416 36.8063 36.7447C35.4459 38.6478 34.035 40.5432 31.8119 40.5838C29.6284 40.6229 28.9253 39.3433 26.4273 39.3433C23.9309 39.3433 23.1504 40.543 21.0837 40.6227C18.9381 40.6993 17.3028 38.5637 15.933 36.6669C13.1301 32.7872 10.9892 25.7033 13.8648 20.9221C15.2931 18.5487 17.8448 17.0434 20.6161 17.0059C22.7222 16.9669 24.7114 18.364 25.9991 18.364C27.2868 18.364 29.7042 16.6843 32.2448 16.9312C33.3082 16.9733 36.2943 17.342 38.2109 20.031C38.056 20.1232 34.648 22.0235 34.6859 25.9766Z" fill="white"/>
</g>
<defs>
<clipPath id="clip0_516_8454">
<rect width="50" height="50" fill="white"/>
</clipPath>
</defs>
</svg>
