<svg width="69" height="69" viewBox="0 0 69 69" fill="none" xmlns="http://www.w3.org/2000/svg">
<path d="M63.25 33.0625V41.975C63.25 48.4156 63.25 51.6359 61.9965 54.096C60.8939 56.2597 59.1347 58.0189 56.971 59.1215C54.5109 60.375 51.2906 60.375 44.85 60.375H24.15C17.7094 60.375 14.4891 60.375 12.0291 59.1215C9.86525 58.0189 8.10598 56.2597 7.00341 54.096C5.75 51.6359 5.75 48.4156 5.75 41.975V27.025C5.75 20.5844 5.75 17.3641 7.00341 14.9041C8.10598 12.7402 9.86525 10.981 12.0291 9.87841C14.4891 8.625 17.7094 8.625 24.15 8.625H35.9375M54.625 23V5.75M46 14.375H63.25M46 34.5C46 40.8512 40.8512 46 34.5 46C28.1487 46 23 40.8512 23 34.5C23 28.1487 28.1487 23 34.5 23C40.8512 23 46 28.1487 46 34.5Z" stroke="white" stroke-width="2" stroke-linecap="round" stroke-linejoin="round"/>
</svg>
