<svg width="50" height="50" viewBox="0 0 50 50" fill="none" xmlns="http://www.w3.org/2000/svg">
<g clip-path="url(#clip0_516_8446)">
<path d="M42.5 0H7.5C3.35786 0 0 3.35786 0 7.5V42.5C0 46.6421 3.35786 50 7.5 50H42.5C46.6421 50 50 46.6421 50 42.5V7.5C50 3.35786 46.6421 0 42.5 0Z" fill="#383838"/>
<path d="M40.6258 25.3473C40.6258 24.0626 40.5194 23.1251 40.2892 22.1528H25.3195V27.9514H34.1064C33.9293 29.3925 32.9726 31.5626 30.8467 33.0209L30.8169 33.2151L35.5501 36.8084L35.878 36.8405C38.8896 34.1148 40.6258 30.1042 40.6258 25.3473Z" fill="#4285F4"/>
<path d="M25.3187 40.6251C29.6236 40.6251 33.2374 39.2361 35.8772 36.8402L30.8459 33.0207C29.4996 33.9409 27.6925 34.5832 25.3187 34.5832C21.1025 34.5832 17.5239 31.8575 16.2483 28.0901L16.0613 28.1057L11.1398 31.8384L11.0754 32.0137C13.6973 37.1179 19.0828 40.6251 25.3187 40.6251Z" fill="#34A853"/>
<path d="M16.2486 28.0905C15.912 27.1183 15.7172 26.0766 15.7172 25.0002C15.7172 23.9238 15.912 22.8821 16.2309 21.9099L16.2219 21.7028L11.2387 17.9102L11.0757 17.9862C9.99505 20.1043 9.375 22.4828 9.375 25.0002C9.375 27.5175 9.99505 29.896 11.0757 32.0141L16.2486 28.0905Z" fill="#FBBC05"/>
<path d="M25.3188 15.4167C28.3127 15.4167 30.3323 16.684 31.4838 17.7432L35.9835 13.4375C33.22 10.9202 29.6237 9.375 25.3188 9.375C19.0828 9.375 13.6973 12.882 11.0754 17.9861L16.2306 21.9098C17.524 18.1424 21.1025 15.4167 25.3188 15.4167Z" fill="#EB4335"/>
</g>
<defs>
<clipPath id="clip0_516_8446">
<rect width="50" height="50" fill="white"/>
</clipPath>
</defs>
</svg>
