<svg width="709" height="630" viewBox="0 0 709 630" fill="none" xmlns="http://www.w3.org/2000/svg">
<path d="M139.012 161.234C162.511 116.737 196.741 78.8051 238.599 50.8745C280.457 22.9439 328.622 5.89686 378.73 1.27734C428.839 -3.34219 479.309 4.61179 525.568 24.4188C571.827 44.2259 612.414 75.2602 643.653 114.711C674.892 154.161 695.796 200.782 704.471 250.35C713.146 299.917 709.319 350.866 693.335 398.582C677.352 446.297 649.718 489.271 612.936 523.612C576.153 557.953 531.385 582.575 482.686 595.249L475.497 567.625C519.601 556.147 560.145 533.848 593.456 502.748C626.767 471.647 651.794 432.728 666.269 389.515C680.744 346.302 684.21 300.161 676.354 255.271C668.497 210.38 649.566 168.159 621.275 132.431C592.983 96.7029 556.226 68.5971 514.332 50.6591C472.438 32.7211 426.731 25.5177 381.351 29.7013C335.97 33.8849 292.351 49.3234 254.442 74.6183C216.534 99.9133 185.535 134.266 164.252 174.564L139.012 161.234Z" fill="#5DA646"/>
<path d="M181.935 189.251C201.356 152.477 229.645 121.128 264.239 98.045C298.832 74.9619 338.638 60.8734 380.05 57.0556C421.462 53.2379 463.172 59.8114 501.403 76.1808C539.634 92.5503 573.177 118.198 598.994 150.802C624.811 183.406 642.087 221.935 649.257 262.901C656.426 303.866 653.263 345.972 640.054 385.406C626.845 424.841 604.006 460.357 573.608 488.737C543.209 517.118 506.211 537.467 465.964 547.941L459.523 523.193C495.654 513.791 528.867 495.523 556.157 470.045C583.446 444.568 603.948 412.685 615.806 377.284C627.664 341.884 630.504 304.084 624.068 267.309C617.631 230.534 602.122 195.946 578.946 166.677C555.77 137.409 525.658 114.384 491.337 99.6888C457.017 84.9938 419.574 79.0926 382.397 82.5199C345.221 85.9472 309.487 98.5946 278.432 119.317C247.377 140.038 221.982 168.18 204.548 201.193L181.935 189.251Z" fill="#5DA646"/>
<path d="M216.727 215.266C232.652 185.111 255.849 159.405 284.216 140.477C312.582 121.549 345.223 109.996 379.181 106.866C413.139 103.735 447.341 109.125 478.69 122.548C510.04 135.971 537.545 157.003 558.715 183.738C579.885 210.473 594.052 242.067 599.931 275.658C605.81 309.25 603.216 343.777 592.384 376.113C581.553 408.449 562.825 437.572 537.898 460.845C512.972 484.117 482.633 500.803 449.63 509.392L443.362 485.305C472.358 477.759 499.013 463.099 520.914 442.652C542.814 422.205 559.268 396.618 568.784 368.208C578.301 339.798 580.58 309.462 575.415 279.949C570.249 250.436 557.803 222.678 539.203 199.189C520.603 175.699 496.437 157.221 468.894 145.428C441.351 133.635 411.301 128.899 381.466 131.649C351.63 134.4 322.953 144.55 298.03 161.18C273.107 177.81 252.727 200.395 238.735 226.889L216.727 215.266Z" fill="#5DA646"/>
<path d="M32 301.5L422 297L507 434.5V629.5H32V301.5Z" fill="#304D30"/>
<path fill-rule="evenodd" clip-rule="evenodd" d="M22.5 264C10.0736 264 0 274.074 0 286.5C0 298.926 10.0736 309 22.5 309H409.704L494.305 444.756C500.877 455.302 514.754 458.524 525.3 451.952C535.846 445.379 539.068 431.502 532.496 420.956L444.091 279.096C443.155 277.592 442.069 276.238 440.867 275.04C436.947 268.431 429.741 264 421.5 264H22.5Z" fill="#5DA646"/>
<path fill-rule="evenodd" clip-rule="evenodd" d="M41.1704 264H420.998C420.729 231.922 394.642 206 362.5 206L362.387 206C358.271 177.72 333.922 156 304.5 156C299.779 156 295.189 156.559 290.792 157.615C285.3 131.005 261.736 111 233.5 111C205.542 111 182.165 130.613 176.375 156.83C173.165 156.284 169.866 156 166.5 156C138.542 156 115.165 175.613 109.375 201.83C106.165 201.284 102.866 201 99.5 201C67.1914 201 41 227.191 41 259.5C41 261.014 41.0576 262.515 41.1704 264Z" fill="#2F425D"/>
<path d="M228.175 484.17L236.848 489.397C238.26 489.397 239 488.79 239 487.609C238.896 486.492 238.552 485.411 237.991 484.44L219.166 449L177.513 450.012C177.125 449.979 176.735 450.033 176.371 450.17C176.006 450.308 175.677 450.525 175.407 450.806C175.136 451.086 174.932 451.424 174.808 451.794C174.683 452.164 174.643 452.558 174.689 452.945C174.689 453.384 175.295 453.957 176.471 454.732L185.111 459.959L175.799 474.223C173.663 477.198 172.352 480.689 172 484.339C172.126 487.21 172.995 489.999 174.521 492.431L202.861 542C202.212 539.077 201.874 536.093 201.852 533.098C201.93 527.769 203.58 522.583 206.593 518.194L228.209 484.17H228.175Z" fill="white"/>
<path d="M239.594 455L263 418.232C254.244 398.077 244.949 388 235.115 388C229.188 388 225.214 389.668 223.16 393.005L201 428.786L239.594 455Z" fill="white"/>
<path d="M220.032 554H266V507H221.712C217.981 511.977 214.547 517.163 211.428 522.532C209.235 526.617 208.06 531.155 208 535.773C208 547.924 211.976 554 219.929 554H220.032Z" fill="white"/>
<path d="M314.55 445.932L334.979 412.152C335.639 411.023 335.991 409.742 336 408.436C336 406.916 335.489 406.139 334.468 406.139C333.812 406.486 333.114 406.747 332.391 406.916L323.028 410.801L314.55 394.215C310.851 386.738 303.326 383 291.977 383H239C243.673 384.143 248.109 386.086 252.108 388.743C257.533 392.999 263.071 400.994 268.723 412.727L279.278 434.684L271.549 438.399C271.163 438.58 270.844 438.876 270.637 439.245C270.429 439.615 270.343 440.04 270.391 440.46C270.391 441.71 271.208 442.453 272.843 442.622L314.687 446L314.55 445.932Z" fill="white"/>
<path d="M334.582 546.973L364 493C360.254 497.583 355.354 501.063 349.816 503.077C344.108 504.664 338.196 505.366 332.28 505.161H299.51V498.329C299.51 495.664 298.866 494.332 297.58 494.332C297.181 494.301 296.781 494.379 296.423 494.56C296.065 494.74 295.763 495.016 295.549 495.357L275 531.601L296.497 564.941C298.122 567.434 299.51 568.357 300.695 567.878C301.879 567.4 302.489 566.922 302.489 565.965V554.59H320.668C323.494 554.831 326.329 554.24 328.828 552.888C331.328 551.536 333.385 549.481 334.751 546.973H334.582Z" fill="white"/>
<path d="M321.467 498H341.181C346.654 497.704 351.853 495.518 355.882 491.817C361.317 487.536 364.023 483.007 364 478.228C363.946 475.874 363.186 473.591 361.817 471.671L338.35 436L298 459.373L321.467 498Z" fill="white"/>
<path fill-rule="evenodd" clip-rule="evenodd" d="M468.435 199.005C501.179 208.239 524.841 243.153 521.286 276.987C520.576 283.754 525.308 290.736 531.856 292.583C538.406 294.43 544.29 290.442 545 283.675C549.976 236.308 516.849 187.428 471.009 174.5C464.461 172.653 458.577 176.641 457.865 183.408C457.155 190.175 461.887 197.157 468.435 199.005ZM465.86 223.507C485.506 229.048 499.704 249.996 497.571 270.296C496.861 277.063 490.976 281.052 484.427 279.204L460.713 272.516C454.165 270.669 449.432 263.686 450.143 256.919L452.717 232.415C453.427 225.648 459.312 221.66 465.86 223.507Z" fill="#5DA646"/>
</svg>
