<svg width="55" height="41" viewBox="0 0 55 41" fill="none" xmlns="http://www.w3.org/2000/svg">
<path d="M26.0574 32.2327L26.4925 33.0602L26.9392 32.2389C27.0899 31.962 27.5379 31.6511 28.4257 31.3951C29.2802 31.1486 30.4204 30.9869 31.7637 30.9047C34.4458 30.7407 37.8517 30.8984 41.208 31.2687C44.5639 31.639 47.8454 32.219 50.278 32.8905C51.498 33.2272 52.4806 33.5806 53.1481 33.9306C53.4833 34.1064 53.7141 34.2686 53.8547 34.4089C53.9983 34.5522 54 34.6232 54 34.6262C54 34.8274 53.9021 35.0782 53.5987 35.3803C53.2941 35.6835 52.8184 36 52.1613 36.3165C50.8491 36.9485 48.9184 37.5311 46.4921 38.0253C41.6477 39.0121 34.9328 39.6262 27.5 39.6262C20.0672 39.6262 13.3523 39.0121 8.50792 38.0253C6.08163 37.5311 4.15086 36.9485 2.83875 36.3165C2.18156 36 1.70592 35.6835 1.4013 35.3803C1.09789 35.0782 1 34.8274 1 34.6262C1 34.6092 1.008 34.5341 1.137 34.395C1.26493 34.2571 1.47553 34.097 1.78297 33.9229C2.39601 33.5757 3.3011 33.2238 4.42887 32.8877C6.67719 32.2176 9.71306 31.6382 12.8219 31.2682C15.9311 30.8982 19.0868 30.7409 21.5753 30.9046C22.8218 30.9866 23.8784 31.1478 24.6709 31.3924C25.4904 31.6454 25.9097 31.9517 26.0574 32.2327Z" stroke="white"/>
<path d="M26.5 19.6875C27.4669 19.6875 28.3943 19.3034 29.078 18.6197C29.7617 17.9359 30.1458 17.0086 30.1458 16.0417C30.1458 15.0747 29.7617 14.1474 29.078 13.4637C28.3943 12.78 27.4669 12.3958 26.5 12.3958C25.5331 12.3958 24.6057 12.78 23.922 13.4637C23.2383 14.1474 22.8542 15.0747 22.8542 16.0417C22.8542 17.0086 23.2383 17.9359 23.922 18.6197C24.6057 19.3034 25.5331 19.6875 26.5 19.6875Z" fill="white"/>
<path d="M36.8119 5.00062H36.8133C42.5081 10.6954 42.5081 19.9296 36.8133 25.6244L28.934 33.5037C28.2886 34.1485 27.4137 34.5107 26.5015 34.5107C25.5892 34.5107 24.7143 34.1485 24.069 33.5037L16.2304 25.6652L16.1896 25.6244C10.4948 19.9296 10.4948 10.6954 16.1896 5.00062C21.8829 -0.694175 31.1171 -0.694175 36.8119 5.00062ZM17.7354 6.54645C15.4111 8.87107 14.1054 12.0252 14.1054 15.3125C14.1054 18.5998 15.4111 21.7525 17.7354 24.0771L17.769 24.1121L17.7719 24.115L25.6148 31.9579C25.8497 32.1925 26.168 32.3242 26.5 32.3242C26.8319 32.3242 27.1503 32.1925 27.3852 31.9579L35.2646 24.0771C37.5615 21.7468 38.8438 18.6029 38.8321 15.3309C38.8203 12.059 37.5154 8.92435 35.2019 6.61062C32.8883 4.29688 29.7538 2.9917 26.4819 2.97968C23.2099 2.96766 20.0659 4.24977 17.7354 6.54645Z" fill="white"/>
</svg>
