<svg width="66" height="90" viewBox="0 0 66 90" fill="none" xmlns="http://www.w3.org/2000/svg">
<path fill-rule="evenodd" clip-rule="evenodd" d="M66.002 15.241V15.681C66.002 17.868 64.228 21.951 62.039 21.95H59.543L56.48 86.796C56.412 88.206 55.253 89.313 53.843 89.313H12.484C11.079 89.313 9.921 88.212 9.847 86.808L6.48 21.951H3.959C1.773 21.951 0 17.868 0 15.68V15.24C0 13.052 1.773 11.28 3.959 11.28H9.246C9.086 10.995 8.978 10.631 9.025 10.137C9.176 8.547 7.906 7.029 7.906 7.029L10.25 4.061H20.25C20.25 4.061 21.291 3.061 20.25 5.145C19.207 7.229 22.664 5.495 22.664 5.495C22.664 5.495 22.775 9.277 21.953 11.28H24.723C25.042 9.71 26.868 7.915 26.868 7.915L26.005 7.044L27.4 5.66C27.4 5.66 26.693 4.424 27.927 3.411C29.161 2.398 29.345 0.428 29.345 0.428L33.103 0L40.146 7.097C40.146 7.097 40.66 7.111 40.601 7.278C40.709 7.117 40.839 6.958 41.027 6.803C42.263 5.79 42.447 3.82 42.447 3.82L46.203 3.393L53.248 10.491C53.248 10.491 54.691 10.527 52.478 11.255C52.4626 11.2599 52.4506 11.2652 52.4383 11.2707C52.4306 11.2741 52.4228 11.2775 52.414 11.281H62.041C64.229 11.281 66.002 13.053 66.002 15.241ZM40.578 7.316C40.49 7.429 40.169 7.6 39.377 7.861C37.861 8.361 39.105 9.097 40.039 9.51L40.5 9.052C40.5 9.052 40.023 8.191 40.578 7.316ZM39.943 11.281L39.638 10.974C39.529 11.073 39.414 11.176 39.295 11.281H39.943ZM12.326 25.001H53.162L54.26 21.951H11.767L12.326 25.001ZM51.2917 56.2083C51.7447 56.2083 52.1793 56.0283 52.4996 55.708C52.82 55.3876 53 54.9531 53 54.5C52.9941 49.0649 50.8324 43.854 46.9892 40.0108C43.146 36.1676 37.9351 34.0059 32.5 34C32.0469 34 31.6124 34.18 31.292 34.5004C30.9717 34.8207 30.7917 35.2553 30.7917 35.7083C30.7917 36.1614 30.9717 36.5959 31.292 36.9163C31.6124 37.2367 32.0469 37.4167 32.5 37.4167C37.0293 37.4216 41.3716 39.2231 44.5742 42.4258C47.7769 45.6284 49.5784 49.9707 49.5833 54.5C49.5833 54.9531 49.7633 55.3876 50.0837 55.708C50.4041 56.0283 50.8386 56.2083 51.2917 56.2083ZM40.5413 55.708C40.2209 56.0283 39.7864 56.2083 39.3333 56.2083H35.4435C35.1826 56.6614 34.8209 57.0484 34.3864 57.3392C33.9519 57.6301 33.4564 57.817 32.938 57.8856C32.4197 57.9541 31.8926 57.9024 31.3974 57.7345C30.9023 57.5666 30.4524 57.287 30.0827 56.9173C29.713 56.5476 29.4334 56.0977 29.2655 55.6026C29.0976 55.1074 29.0459 54.5803 29.1144 54.062C29.183 53.5436 29.3699 53.0481 29.6608 52.6136C29.9516 52.1791 30.3386 51.8174 30.7917 51.5565V45.9583C30.7917 45.5053 30.9717 45.0707 31.292 44.7504C31.6124 44.43 32.0469 44.25 32.5 44.25C32.9531 44.25 33.3876 44.43 33.708 44.7504C34.0283 45.0707 34.2083 45.5053 34.2083 45.9583V51.5565C34.7201 51.8543 35.1457 52.2799 35.4435 52.7917H39.3333C39.7864 52.7917 40.2209 52.9717 40.5413 53.292C40.8617 53.6124 41.0417 54.0469 41.0417 54.5C41.0417 54.9531 40.8617 55.3876 40.5413 55.708ZM14.172 45.8772C14.453 45.6895 14.7832 45.5893 15.1211 45.5893C15.5742 45.5893 16.0087 45.7693 16.3291 46.0897C16.6495 46.4101 16.8295 46.8446 16.8295 47.2977C16.8295 47.6355 16.7293 47.9658 16.5416 48.2468C16.3538 48.5277 16.087 48.7467 15.7749 48.876C15.4627 49.0053 15.1192 49.0391 14.7878 48.9732C14.4565 48.9073 14.1521 48.7446 13.9132 48.5056C13.6742 48.2667 13.5115 47.9623 13.4456 47.6309C13.3797 47.2996 13.4135 46.9561 13.5428 46.6439C13.6721 46.3318 13.8911 46.065 14.172 45.8772ZM15.1288 53.5509C15.3165 53.8318 15.4167 54.1621 15.4167 54.5C15.4167 54.9531 15.2367 55.3876 14.9163 55.708C14.5959 56.0283 14.1614 56.2083 13.7083 56.2083C13.3705 56.2083 13.0402 56.1081 12.7592 55.9204C12.4783 55.7327 12.2593 55.4659 12.13 55.1538C12.0007 54.8416 11.9669 54.4981 12.0328 54.1667C12.0987 53.8353 12.2614 53.5309 12.5004 53.292C12.7393 53.0531 13.0437 52.8904 13.3751 52.8245C13.7064 52.7586 14.0499 52.7924 14.3621 52.9217C14.6742 53.051 14.941 53.27 15.1288 53.5509ZM31.5509 71.8712C31.8318 71.6835 32.1621 71.5833 32.5 71.5833C32.9531 71.5833 33.3876 71.7633 33.708 72.0837C34.0283 72.4041 34.2083 72.8386 34.2083 73.2917C34.2083 73.6295 34.1081 73.9598 33.9204 74.2408C33.7327 74.5217 33.4659 74.7407 33.1538 74.87C32.8416 74.9993 32.4981 75.0331 32.1667 74.9672C31.8353 74.9013 31.5309 74.7386 31.292 74.4996C31.0531 74.2607 30.8904 73.9563 30.8245 73.6249C30.7586 73.2936 30.7924 72.9501 30.9217 72.6379C31.051 72.3258 31.27 72.059 31.5509 71.8712ZM18.2618 39.7665C18.5427 39.5788 18.873 39.4786 19.2109 39.4786C19.664 39.4786 20.0985 39.6586 20.4188 39.979C20.7392 40.2994 20.9192 40.7339 20.9192 41.187C20.9192 41.5248 20.819 41.8551 20.6313 42.1361C20.4436 42.417 20.1768 42.636 19.8646 42.7653C19.5525 42.8946 19.209 42.9284 18.8776 42.8625C18.5462 42.7966 18.2418 42.6338 18.0029 42.3949C17.764 42.156 17.6013 41.8516 17.5354 41.5202C17.4695 41.1889 17.5033 40.8454 17.6326 40.5332C17.7619 40.2211 17.9808 39.9542 18.2618 39.7665ZM24.34 35.7246C24.621 35.5369 24.9513 35.4367 25.2891 35.4367C25.7422 35.4367 26.1767 35.6167 26.4971 35.9371C26.8175 36.2574 26.9975 36.692 26.9975 37.145C26.9975 37.4829 26.8973 37.8132 26.7096 38.0941C26.5218 38.3751 26.255 38.594 25.9429 38.7233C25.6307 38.8526 25.2872 38.8865 24.9558 38.8205C24.6245 38.7546 24.3201 38.5919 24.0812 38.353C23.8422 38.1141 23.6795 37.8097 23.6136 37.4783C23.5477 37.1469 23.5815 36.8034 23.7108 36.4913C23.8401 36.1791 24.0591 35.9123 24.34 35.7246ZM14.172 60.2819C14.453 60.0942 14.7832 59.994 15.1211 59.994C15.5742 59.994 16.0087 60.174 16.3291 60.4944C16.6495 60.8147 16.8295 61.2493 16.8295 61.7023C16.8295 62.0402 16.7293 62.3705 16.5416 62.6514C16.3538 62.9324 16.087 63.1513 15.7749 63.2806C15.4627 63.4099 15.1192 63.4438 14.7878 63.3778C14.4565 63.3119 14.1521 63.1492 13.9132 62.9103C13.6742 62.6714 13.5115 62.367 13.4456 62.0356C13.3797 61.7042 13.4135 61.3607 13.5428 61.0486C13.6721 60.7364 13.8911 60.4696 14.172 60.2819ZM18.2618 66.3926C18.5427 66.2049 18.873 66.1047 19.2109 66.1047C19.664 66.1047 20.0985 66.2847 20.4188 66.6051C20.7392 66.9254 20.9192 67.36 20.9192 67.813C20.9192 68.1509 20.819 68.4812 20.6313 68.7621C20.4436 69.0431 20.1768 69.262 19.8646 69.3913C19.5525 69.5206 19.209 69.5545 18.8776 69.4885C18.5462 69.4226 18.2418 69.2599 18.0029 69.021C17.764 68.7821 17.6013 68.4777 17.5354 68.1463C17.4695 67.8149 17.5033 67.4715 17.6326 67.1593C17.7619 66.8471 17.9808 66.5803 18.2618 66.3926ZM24.34 70.4345C24.621 70.2468 24.9513 70.1466 25.2891 70.1466C25.7422 70.1466 26.1767 70.3266 26.4971 70.647C26.8175 70.9674 26.9975 71.4019 26.9975 71.855C26.9975 72.1928 26.8973 72.5231 26.7096 72.8041C26.5218 73.085 26.255 73.304 25.9429 73.4333C25.6307 73.5626 25.2872 73.5964 24.9558 73.5305C24.6245 73.4646 24.3201 73.3018 24.0812 73.0629C23.8422 72.824 23.6795 72.5196 23.6136 72.1882C23.5477 71.8568 23.5815 71.5134 23.7108 71.2012C23.8401 70.8891 24.0591 70.6222 24.34 70.4345ZM48.9298 60.2819C49.2107 60.0942 49.541 59.994 49.8789 59.994C50.1032 59.994 50.3254 60.0382 50.5326 60.124C50.7399 60.2099 50.9282 60.3357 51.0868 60.4944C51.2455 60.653 51.3713 60.8413 51.4572 61.0486C51.543 61.2558 51.5872 61.478 51.5872 61.7023C51.5872 62.0402 51.487 62.3705 51.2993 62.6514C51.1116 62.9324 50.8448 63.1513 50.5326 63.2806C50.2205 63.4099 49.877 63.4438 49.5456 63.3778C49.2142 63.3119 48.9098 63.1492 48.6709 62.9103C48.432 62.6714 48.2693 62.367 48.2034 62.0356C48.1375 61.7042 48.1713 61.3607 48.3006 61.0486C48.4299 60.7364 48.6488 60.4696 48.9298 60.2819ZM44.84 66.3926C45.121 66.2049 45.4512 66.1047 45.7891 66.1047C46.0135 66.1047 46.2356 66.1489 46.4429 66.2347C46.6501 66.3206 46.8385 66.4464 46.9971 66.6051C47.1557 66.7637 47.2816 66.952 47.3674 67.1593C47.4533 67.3666 47.4975 67.5887 47.4975 67.813C47.4975 68.1509 47.3973 68.4812 47.2096 68.7621C47.0218 69.0431 46.755 69.262 46.4429 69.3913C46.1307 69.5206 45.7872 69.5545 45.4558 69.4885C45.1245 69.4226 44.8201 69.2599 44.5812 69.021C44.3422 68.7821 44.1795 68.4777 44.1136 68.1463C44.0477 67.8149 44.0815 67.4715 44.2108 67.1593C44.3401 66.8471 44.5591 66.5803 44.84 66.3926ZM38.7618 70.4345C39.0427 70.2468 39.373 70.1466 39.7109 70.1466C39.9352 70.1466 40.1574 70.1908 40.3646 70.2767C40.5719 70.3625 40.7602 70.4883 40.9188 70.647C41.0775 70.8056 41.2033 70.9939 41.2892 71.2012C41.375 71.4085 41.4192 71.6306 41.4192 71.855C41.4192 72.1928 41.319 72.5231 41.1313 72.8041C40.9436 73.085 40.6768 73.304 40.3646 73.4333C40.0525 73.5626 39.709 73.5964 39.3776 73.5305C39.0462 73.4646 38.7418 73.3018 38.5029 73.0629C38.264 72.824 38.1013 72.5196 38.0354 72.1882C37.9695 71.8568 38.0033 71.5134 38.1326 71.2012C38.2619 70.8891 38.4808 70.6222 38.7618 70.4345Z" fill="#5DA646"/>
</svg>
