<svg width="68" height="68" viewBox="0 0 68 68" fill="none" xmlns="http://www.w3.org/2000/svg">
<path d="M35.7 54.4C35.7 47.4867 40.12 41.9333 47.0333 41.9333C47.8266 41.9333 48.62 42.0466 49.3 42.16V7.93329H37.9667V14.7333H22.1V7.93329H8.5V64.6H41.0267C37.74 62.3333 35.7 58.5933 35.7 54.4Z" fill="#FDCC00"/>
<path d="M6.23328 64.6H8.49999V7.93329H6.23328V64.6Z" fill="white"/>
<path d="M49.3 41.9333H51.5667V7.93329H49.3V41.9333Z" fill="#FFA800"/>
<path d="M36.8332 54.4C36.8332 48.28 41.2532 43.18 47.0332 42.16V12.4667H37.9665V14.7334H19.8332V12.4667H10.7667V60.0667H38.1934C37.2867 58.3667 36.8332 56.44 36.8332 54.4Z" fill="#FFE100"/>
<path d="M33.4332 5.66671C33.4332 3.17342 31.3932 1.13342 28.9 1.13342C26.4067 1.13342 24.3667 3.17342 24.3667 5.66671H19.8334V14.7334H34.5667V5.66671H33.4332Z" fill="#FDCC00"/>
<path d="M34.5667 14.7333H37.9667V5.66672H34.5667V14.7333Z" fill="#FFA800"/>
<path d="M58.3667 54.4C58.3667 47.4867 53.4934 41.9333 47.6 41.9333C41.7065 41.9333 36.8333 47.4866 36.8333 54.4C36.8333 61.3134 41.7065 66.8667 47.6 66.8667C53.4934 66.8667 58.3667 61.3133 58.3667 54.4Z" fill="#00DA6C"/>
<path d="M49.3 41.9333C48.96 41.9333 48.7332 41.9333 48.3932 41.9333C53.9465 42.3866 58.3665 47.8266 58.3665 54.4C58.3665 60.9734 53.9465 66.3 48.3932 66.8667C48.7332 66.8667 48.96 66.8667 49.3 66.8667C56.2133 66.8667 61.7667 61.3134 61.7667 54.4C61.7667 47.4866 56.2133 41.9333 49.3 41.9333Z" fill="#00AD55"/>
<path d="M49.3 68C41.82 68 35.7 61.88 35.7 54.4C35.7 46.92 41.82 40.8 49.3 40.8C56.78 40.8 62.9 46.92 62.9 54.4C62.9 61.88 56.78 68 49.3 68ZM49.3 43.0667C43.0667 43.0667 37.9667 48.1667 37.9667 54.4C37.9667 60.6333 43.0667 65.7333 49.3 65.7333C55.5332 65.7333 60.6332 60.6333 60.6332 54.4C60.6332 48.1667 55.5332 43.0667 49.3 43.0667Z" fill="black"/>
<path d="M37.9667 15.8667H19.8332C19.1532 15.8667 18.7 15.4134 18.7 14.7334V5.66671C18.7 4.98671 19.1532 4.53342 19.8332 4.53342H23.3465C23.9132 1.92671 26.18 0 28.9 0C31.62 0 33.8867 1.92671 34.4532 4.53329H37.9665C38.6465 4.53329 39.0998 4.98658 39.0998 5.66658V14.7333C39.0999 15.4133 38.5332 15.8667 37.9667 15.8667ZM20.9667 13.6H36.8334V6.8H33.4334C32.7534 6.8 32.3001 6.34671 32.3001 5.66671C32.3001 3.74 30.8268 2.26671 28.9001 2.26671C26.9734 2.26671 25.5001 3.74 25.5001 5.66671C25.5001 6.34671 25.0468 6.8 24.3668 6.8H20.9668L20.9667 13.6Z" fill="black"/>
<path d="M33.4333 22.6667H17.5667C16.8867 22.6667 16.4334 22.2134 16.4334 21.5334C16.4334 20.8534 16.8867 20.4001 17.5667 20.4001H33.4334C34.1134 20.4001 34.5667 20.8534 34.5667 21.5334C34.5667 22.2133 34 22.6667 33.4333 22.6667Z" fill="black"/>
<path d="M41.3667 22.6667H37.9667C37.2867 22.6667 36.8334 22.2134 36.8334 21.5334C36.8334 20.8534 37.2867 20.4001 37.9667 20.4001H41.3667C42.0467 20.4001 42.5 20.8534 42.5 21.5334C42.5 22.2133 41.9332 22.6667 41.3667 22.6667Z" fill="black"/>
<path d="M41.3667 27.2H30.0334C29.3534 27.2 28.9001 26.7467 28.9001 26.0667C28.9001 25.3867 29.3534 24.9334 30.0334 24.9334H41.3667C42.0467 24.9334 42.5 25.3867 42.5 26.0667C42.5 26.7467 41.9332 27.2 41.3667 27.2Z" fill="black"/>
<path d="M41.3667 31.7333H36.8334C36.1534 31.7333 35.7001 31.28 35.7001 30.6C35.7001 29.92 36.1534 29.4667 36.8334 29.4667H41.3667C42.0467 29.4667 42.5 29.92 42.5 30.6C42.5 31.28 41.9333 31.7333 41.3667 31.7333Z" fill="black"/>
<path d="M25.5 27.2H17.5667C16.8867 27.2 16.4334 26.7467 16.4334 26.0667C16.4334 25.3867 16.8867 24.9334 17.5667 24.9334H25.5C26.18 24.9334 26.6333 25.3867 26.6333 26.0667C26.6333 26.7467 26.0667 27.2 25.5 27.2Z" fill="black"/>
<path d="M20.9667 31.7333H17.5667C16.8867 31.7333 16.4334 31.28 16.4334 30.6C16.4334 29.92 16.8867 29.4667 17.5667 29.4667H20.9667C21.6467 29.4667 22.1 29.92 22.1 30.6C22.1 31.28 21.5333 31.7333 20.9667 31.7333Z" fill="black"/>
<path d="M26.6333 36.2667H17.5666C16.8866 36.2667 16.4333 35.8134 16.4333 35.1334C16.4333 34.4534 16.8866 34.0001 17.5666 34.0001H26.6333C27.3133 34.0001 27.7666 34.4534 27.7666 35.1334C27.7667 35.8133 27.2 36.2667 26.6333 36.2667Z" fill="black"/>
<path d="M32.3 31.7333H25.5C24.82 31.7333 24.3667 31.28 24.3667 30.6C24.3667 29.92 24.82 29.4667 25.5 29.4667H32.3C32.98 29.4667 33.4333 29.92 33.4333 30.6C33.4333 31.28 32.8667 31.7333 32.3 31.7333Z" fill="black"/>
<path d="M41.3667 36.2667H40.2334C39.5534 36.2667 39.1001 35.8134 39.1001 35.1334C39.1001 34.4534 39.5534 34.0001 40.2334 34.0001H41.3667C42.0467 34.0001 42.5 34.4534 42.5 35.1334C42.5 35.8133 41.9333 36.2667 41.3667 36.2667Z" fill="black"/>
<path d="M35.7 36.2667H31.1667C30.4867 36.2667 30.0334 35.8134 30.0334 35.1334C30.0334 34.4534 30.4867 34.0001 31.1667 34.0001H35.7C36.38 34.0001 36.8333 34.4534 36.8333 35.1334C36.8333 35.8133 36.2667 36.2667 35.7 36.2667Z" fill="black"/>
<path d="M18.7 40.8H17.5667C16.8867 40.8 16.4334 40.3467 16.4334 39.6667C16.4334 38.9867 16.8867 38.5334 17.5667 38.5334H18.7C19.38 38.5334 19.8333 38.9867 19.8333 39.6667C19.8333 40.3467 19.2667 40.8 18.7 40.8Z" fill="black"/>
<path d="M41.3667 40.8H32.3C31.62 40.8 31.1667 40.3467 31.1667 39.6667C31.1667 38.9867 31.62 38.5334 32.3 38.5334H41.3667C42.0467 38.5334 42.5 38.9867 42.5 39.6667C42.5 40.3467 41.9333 40.8 41.3667 40.8Z" fill="black"/>
<path d="M27.7667 40.8H23.2334C22.5534 40.8 22.1001 40.3467 22.1001 39.6667C22.1001 38.9867 22.5534 38.5334 23.2334 38.5334H27.7667C28.4467 38.5334 28.9 38.9867 28.9 39.6667C28.9 40.3467 28.3333 40.8 27.7667 40.8Z" fill="black"/>
<path d="M42.16 65.7333H6.23326C5.55326 65.7333 5.09998 65.28 5.09998 64.6V23.8C5.09998 23.12 5.55326 22.6667 6.23326 22.6667C6.91326 22.6667 7.36655 23.12 7.36655 23.8V63.4667H39.2133C36.9467 60.9733 35.7 57.8 35.7 54.4C35.7 46.92 41.82 40.8 49.3 40.8C49.64 40.8 50.0933 40.8 50.4333 40.8V9.0667H39.1V14.7334C39.1 15.4134 38.6467 15.8667 37.9667 15.8667H19.8333C19.1533 15.8667 18.7 15.4134 18.7 14.7334V9.0667H7.36669V14.7334C7.36669 15.4134 6.9134 15.8667 6.2334 15.8667C5.5534 15.8667 5.10011 15.4134 5.10011 14.7334V7.93341C5.10011 7.25341 5.5534 6.80012 6.2334 6.80012H19.8334C20.5134 6.80012 20.9667 7.25341 20.9667 7.93341V13.6H36.8334V7.93328C36.8334 7.25328 37.2867 6.79999 37.9667 6.79999H51.5667C52.2467 6.79999 52.7 7.25328 52.7 7.93328V42.16C52.7 42.5 52.5867 42.84 52.2467 43.0667C52.02 43.2934 51.68 43.4067 51.34 43.2934C50.66 43.1801 49.98 43.0667 49.3 43.0667C43.0667 43.0667 37.9667 48.1667 37.9667 54.4C37.9667 58.0267 39.78 61.54 42.84 63.6933C43.2933 64.0333 43.4067 64.4866 43.2933 64.94C43.0667 65.3933 42.6133 65.7333 42.16 65.7333Z" fill="black"/>
<path d="M7.36668 19.2667C7.36668 18.5867 6.91339 18.1334 6.23339 18.1334C5.55339 18.1334 5.1001 18.5867 5.1001 19.2667C5.1001 19.9467 5.55339 20.4 6.23339 20.4C6.91339 20.4 7.36668 19.9467 7.36668 19.2667Z" fill="black"/>
<path d="M38.1933 61.2H10.7667C10.0867 61.2 9.63342 60.7467 9.63342 60.0667V12.4667C9.63342 11.7867 10.0867 11.3334 10.7667 11.3334H19.8334C20.5134 11.3334 20.9667 11.7867 20.9667 12.4667V13.6H36.8334V12.4667C36.8334 11.7867 37.2867 11.3334 37.9667 11.3334H47.0334C47.7134 11.3334 48.1667 11.7867 48.1667 12.4667V42.16C48.1667 42.7267 47.8267 43.18 47.26 43.2933C41.82 44.2 37.9667 48.96 37.9667 54.4C37.9667 56.2133 38.42 57.9133 39.2134 59.5C39.4401 59.84 39.3267 60.2933 39.2134 60.6333C38.9867 60.9733 38.5333 61.2 38.1933 61.2ZM11.9 58.9333H36.4933C35.9266 57.46 35.7 55.9866 35.7 54.4C35.7 48.1667 39.8933 42.7267 45.9 41.2533V13.6H39.1V14.7333C39.1 15.4133 38.6467 15.8666 37.9667 15.8666H19.8333C19.1533 15.8666 18.7 15.4133 18.7 14.7333V13.6H11.9V58.9333Z" fill="black"/>
<circle cx="42.5" cy="54.5" r="1.5" fill="black"/>
<circle cx="42.5" cy="54.5" r="1.5" fill="black"/>
<circle cx="42.5" cy="54.5" r="1.5" fill="black"/>
<circle cx="42.5" cy="54.5" r="1.5" fill="black"/>
<circle cx="42.5" cy="54.5" r="1.5" fill="black"/>
<circle cx="49.5" cy="54.5" r="1.5" fill="black"/>
<circle cx="49.5" cy="54.5" r="1.5" fill="black"/>
<circle cx="49.5" cy="54.5" r="1.5" fill="black"/>
<circle cx="49.5" cy="54.5" r="1.5" fill="black"/>
<circle cx="49.5" cy="54.5" r="1.5" fill="black"/>
<circle cx="56.5" cy="54.5" r="1.5" fill="black"/>
<circle cx="56.5" cy="54.5" r="1.5" fill="black"/>
<circle cx="56.5" cy="54.5" r="1.5" fill="black"/>
<circle cx="56.5" cy="54.5" r="1.5" fill="black"/>
<circle cx="56.5" cy="54.5" r="1.5" fill="black"/>
</svg>
