<svg width="36" height="35" viewBox="0 0 36 35" fill="none" xmlns="http://www.w3.org/2000/svg">
<path d="M28.3537 6.23438H6.85224C5.48097 6.23438 4.43881 7.4375 4.60336 8.77734L7.89441 31.9648C8.03153 33.0859 8.99142 33.9336 10.1433 33.9336H25.0353C26.1597 33.9336 27.1196 33.0859 27.2841 31.9648L30.5752 8.77734C30.7672 7.41016 29.6976 6.23438 28.3537 6.23438Z" fill="#5DA646"/>
<path d="M25.0353 34.1797H10.1707C8.90915 34.1797 7.81214 33.2227 7.64759 31.9922L4.35654 8.80469C4.27426 8.09375 4.49367 7.35547 4.9599 6.80859C5.42613 6.26172 6.13919 5.96094 6.85225 5.96094H28.3263C29.0668 5.96094 29.7524 6.26172 30.2187 6.80859C30.6849 7.35547 30.9317 8.06641 30.822 8.80469L27.531 31.9922C27.3939 33.2227 26.3243 34.1797 25.0353 34.1797ZM6.85225 6.50781C6.27632 6.50781 5.72781 6.75391 5.37128 7.19141C5.01475 7.62891 4.82277 8.17578 4.90505 8.75L8.19609 31.9375C8.33322 32.9219 9.15598 33.6602 10.1707 33.6602H25.0627C26.05 33.6602 26.9002 32.9219 27.0373 31.9375L30.3284 8.75C30.4106 8.20313 30.2187 7.62891 29.8621 7.19141C29.5056 6.75391 28.9297 6.50781 28.3812 6.50781H6.85225Z" fill="#304D30"/>
<path d="M10.1433 32.5664L6.44087 6.23438C5.31643 6.23438 4.43882 7.21875 4.57594 8.36719L8.00411 32.5664C8.11382 33.332 8.77202 33.9062 9.53993 33.9062H11.6791C10.9112 33.9062 10.253 33.332 10.1433 32.5664Z" fill="white"/>
<path d="M28.7651 6.23438L25.0627 32.5664C24.953 33.332 24.2948 33.9062 23.5269 33.9062H25.6661C26.434 33.9062 27.1196 33.332 27.2019 32.5664L30.63 8.36719C30.7946 7.21875 29.917 6.23438 28.7651 6.23438Z" fill="#304D30"/>
<path d="M21.991 15.3398L19.6873 11.5391H15.6009L19.0291 17.1445L18.1241 17.6641L21.3877 17.5547L22.8961 14.793L21.991 15.3398Z" fill="white"/>
<path d="M12.8036 16.1602L15.7929 17.9648L17.4933 15.1758L15.4638 11.8125L12.8036 16.1602ZM19.5228 26.25H23.9657L26.1049 22.7773H19.5228V21.7109L17.9321 24.5547L19.5228 27.2891V26.25Z" fill="white"/>
<path d="M23.5817 17.9922L20.5101 19.5781L22.0185 22.4766H25.9403L23.5817 17.9922ZM11.1855 18.7578L9.10114 22.6953L11.2129 26.168L14.2845 20.3711L15.1896 20.8633L13.4343 18.1562L10.253 18.2656L11.1855 18.7578Z" fill="white"/>
<path d="M16.6157 26.1953L16.6431 22.7227L13.3521 22.6953L12.3922 24.5L11.542 26.168L16.6157 26.1953Z" fill="white"/>
<path d="M18.1241 17.9375C18.0144 17.9375 17.9047 17.8555 17.8498 17.7461C17.8224 17.6367 17.8773 17.5 17.9595 17.4453L18.6177 17.0352L15.3815 11.6758C15.3267 11.5938 15.3267 11.4844 15.3815 11.4023C15.4364 11.3203 15.5187 11.2656 15.6284 11.2656H19.7148C19.797 11.2656 19.9067 11.3203 19.9616 11.4023L22.1282 14.957L22.7864 14.5469C22.8961 14.4922 23.0332 14.4922 23.1155 14.5742C23.1978 14.6562 23.2252 14.793 23.1704 14.9023L21.662 17.6641C21.6071 17.7461 21.5248 17.8008 21.4426 17.8008L18.1241 17.9375ZM16.0946 11.8125L19.2485 17.0078C19.2759 17.0625 19.3034 17.1445 19.2759 17.2266C19.2485 17.3086 19.2211 17.3633 19.1662 17.3906L21.1957 17.3086L22.1556 15.5586H22.1282C22.0733 15.5859 21.9911 15.6133 21.9088 15.5859C21.8265 15.5586 21.7717 15.5312 21.7442 15.4492L19.5228 11.7852H16.0946V11.8125Z" fill="#304D30"/>
<path d="M15.7929 18.2383C15.7381 18.2383 15.6832 18.2383 15.6558 18.2109L12.6664 16.3789C12.5293 16.2969 12.5019 16.1328 12.5842 15.9961L15.3815 11.375C15.4638 11.2383 15.6284 11.2109 15.7655 11.293C15.9026 11.375 15.93 11.5391 15.8478 11.6758L13.1875 16.0508L15.7106 17.582L17.2739 15.0117C17.3562 14.875 17.5207 14.8477 17.6578 14.9297C17.795 15.0117 17.8224 15.1758 17.7401 15.3125L16.0397 18.1016C16.0123 18.1562 15.93 18.2109 15.8752 18.2383H15.7929ZM19.5228 27.5625C19.4131 27.5625 19.3308 27.5078 19.2759 27.4258L17.6853 24.6914C17.6304 24.6094 17.6304 24.5 17.6853 24.418L19.2759 21.6016C19.3308 21.4922 19.4679 21.4375 19.5776 21.4648C19.6873 21.4922 19.7696 21.6016 19.7696 21.7383V22.5039H26.0774C26.1871 22.5039 26.2694 22.5586 26.3243 22.6406C26.3791 22.7227 26.3791 22.832 26.3243 22.9141L24.2125 26.3867C24.1577 26.4687 24.0754 26.5234 23.9657 26.5234H19.797V27.2891C19.797 27.4258 19.7148 27.5078 19.605 27.5625H19.5228ZM18.2612 24.5547L19.2485 26.2773V26.25C19.2485 26.168 19.2759 26.1133 19.3308 26.0586C19.3856 26.0039 19.4405 25.9766 19.5228 25.9766H23.8286L25.6112 23.0508H19.5228C19.4405 23.0508 19.3856 23.0234 19.3308 22.9687C19.2759 22.9141 19.2485 22.8594 19.2485 22.7773L18.2612 24.5547Z" fill="#304D30"/>
<path d="M26.1049 23.0508C25.9952 23.0508 25.9129 22.9961 25.858 22.9141L23.472 18.375L20.8666 19.7148L22.2379 22.3672C22.3202 22.5039 22.2653 22.668 22.1282 22.7227C21.991 22.8047 21.8265 22.75 21.7716 22.6133L20.2632 19.7148C20.181 19.5781 20.2358 19.4141 20.3729 19.3594L23.472 17.7461C23.6091 17.6641 23.7737 17.7187 23.8285 17.8555L26.3243 22.6406C26.4065 22.7773 26.3517 22.9414 26.2146 22.9961C26.1871 23.0234 26.1323 23.0508 26.1049 23.0508ZM11.2129 26.4414C11.1032 26.4414 11.0209 26.3867 10.966 26.3047L8.85429 22.832C8.79944 22.75 8.79944 22.6406 8.85429 22.5586L10.8289 18.8672L10.1433 18.5117C10.0336 18.457 9.97873 18.3203 10.0062 18.2109C10.0336 18.1016 10.1433 17.9922 10.253 17.9922L13.4069 17.8555C13.5166 17.8555 13.5989 17.9102 13.6537 17.9922L15.409 20.6719C15.4638 20.7266 15.4912 20.7812 15.4912 20.8633C15.4912 21.0273 15.3815 21.1367 15.217 21.1367C15.1621 21.1367 15.1347 21.1367 15.0799 21.1094L14.3942 20.7539L11.4597 26.3047C11.4049 26.3867 11.3226 26.4414 11.2129 26.4414ZM9.43023 22.668L11.2129 25.5937L14.0377 20.2617C14.12 20.125 14.2571 20.0703 14.3942 20.1523L13.2698 18.457L11.2952 18.5117H11.3226C11.4597 18.5937 11.5146 18.7578 11.4323 18.8945L9.43023 22.668Z" fill="#304D30"/>
<path d="M16.6157 26.4688L11.2129 26.4414C11.0483 26.4414 10.9386 26.3047 10.9386 26.168C10.9386 26.0312 11.0483 25.8945 11.2129 25.8945L16.3414 25.9219L16.1769 22.9961L13.1601 22.9687C12.9955 22.9687 12.8858 22.832 12.8858 22.6953C12.8858 22.5312 12.9955 22.4219 13.1601 22.4219L16.4237 22.4492C16.5608 22.4492 16.698 22.5586 16.698 22.6953L16.8899 26.168C16.8899 26.25 16.8625 26.3047 16.8077 26.3594C16.7802 26.4414 16.698 26.4688 16.6157 26.4688Z" fill="#304D30"/>
<path d="M25.0353 34.1797H10.1707C8.90915 34.1797 7.81214 33.2227 7.64759 31.9922L4.35654 8.80469C4.27426 8.09375 4.49367 7.35547 4.9599 6.80859C5.42613 6.26172 6.13919 5.96094 6.85225 5.96094H28.3263C29.0668 5.96094 29.7524 6.26172 30.2187 6.80859C30.6849 7.35547 30.9317 8.06641 30.822 8.80469L27.531 31.9922C27.3939 33.2227 26.3243 34.1797 25.0353 34.1797ZM6.85225 6.50781C6.27632 6.50781 5.72781 6.75391 5.37128 7.19141C5.01475 7.62891 4.82277 8.17578 4.90505 8.75L8.19609 31.9375C8.33322 32.9219 9.15598 33.6602 10.1707 33.6602H25.0627C26.05 33.6602 26.9002 32.9219 27.0373 31.9375L30.3284 8.75C30.4106 8.20313 30.2187 7.62891 29.8621 7.19141C29.5056 6.75391 28.9297 6.50781 28.3812 6.50781H6.85225Z" fill="#304D30"/>
<path d="M22.0185 3.25391L19.0291 6.23438H28.1892L25.1998 3.25391C24.3222 2.37891 22.8961 2.37891 22.0185 3.25391ZM10.7467 3.25391L7.75729 6.23438H16.9174L13.9554 3.25391C13.0504 2.37891 11.6243 2.37891 10.7467 3.25391Z" fill="black"/>
<path d="M28.8474 6.50781H18.3709L21.8265 3.0625C22.2927 2.59766 22.9509 2.32422 23.6091 2.32422C24.2674 2.32422 24.9256 2.59766 25.3918 3.0625L28.8474 6.50781ZM19.6873 5.96094H27.531L25.0078 3.44531C24.6239 3.0625 24.1302 2.87109 23.6091 2.87109C23.0881 2.87109 22.5944 3.08984 22.2105 3.44531L19.6873 5.96094ZM17.603 6.50781H7.09908L10.5547 3.0625C11.0209 2.59766 11.6791 2.32422 12.3373 2.32422C13.023 2.32422 13.6537 2.59766 14.12 3.0625L17.603 6.50781ZM8.41549 5.96094H16.2591L13.7634 3.44531C13.3795 3.0625 12.8858 2.87109 12.3647 2.87109C11.8437 2.87109 11.35 3.08984 10.9661 3.44531L8.41549 5.96094Z" fill="#304D30"/>
<path d="M24.048 6.20703L19.5776 1.75C18.7 0.875 17.2739 0.875 16.3963 1.75L11.8985 6.23438L24.048 6.20703Z" fill="white"/>
<path d="M24.048 6.50781H11.2403L16.1769 1.55859C16.6705 1.09375 17.3013 0.820312 17.987 0.820312C18.6726 0.820312 19.3034 1.09375 19.7696 1.55859L24.7062 6.48047L24.048 6.50781ZM12.5567 5.96094H23.3897L19.3856 1.94141C19.0017 1.58594 18.508 1.36719 17.987 1.36719C17.4659 1.36719 16.9722 1.58594 16.5883 1.94141L12.5567 5.96094Z" fill="#304D30"/>
</svg>
